<svg width="128" height="46" viewBox="0 0 128 46" fill="none" xmlns="http://www.w3.org/2000/svg">
<path d="M27.2454 3.8457C27.2738 3.44442 27.1673 3.1337 26.9258 2.91353C26.6879 2.69336 26.3115 2.58327 25.7966 2.58327C25.4557 2.58327 25.1645 2.62766 24.923 2.71644C24.6815 2.80167 24.4915 2.92241 24.353 3.07866C24.2145 3.23136 24.1275 3.40891 24.092 3.61133C24.0601 3.77113 24.0689 3.91317 24.1187 4.03746C24.1684 4.16175 24.2554 4.27184 24.3797 4.36772C24.5075 4.4636 24.6655 4.54705 24.8537 4.61808C25.0455 4.6891 25.2604 4.75124 25.4983 4.80451L26.3932 5.01758C26.9116 5.13477 27.3608 5.29102 27.7408 5.48633C28.1243 5.67809 28.4351 5.91069 28.673 6.18413C28.9109 6.45401 29.0743 6.76474 29.1631 7.1163C29.2518 7.46786 29.2589 7.86204 29.1844 8.29883C29.0707 8.98775 28.7991 9.57901 28.3694 10.0726C27.9432 10.5662 27.3857 10.9444 26.6968 11.2072C26.0114 11.47 25.2142 11.6014 24.3051 11.6014C23.396 11.6014 22.6236 11.4647 21.988 11.1912C21.3559 10.9142 20.8978 10.497 20.6137 9.93945C20.3296 9.38192 20.2532 8.6788 20.3846 7.83008H22.9042C22.8651 8.18164 22.9095 8.47461 23.0373 8.70898C23.1687 8.94336 23.3711 9.12092 23.6446 9.24165C23.918 9.36239 24.2483 9.42276 24.6354 9.42276C24.9905 9.42276 25.3012 9.37482 25.5675 9.27894C25.8374 9.18306 26.0523 9.04989 26.2121 8.87944C26.3754 8.70898 26.4748 8.51367 26.5104 8.2935C26.5459 8.09109 26.5121 7.91531 26.4091 7.76616C26.3097 7.61701 26.1393 7.48739 25.8978 7.37731C25.6599 7.26722 25.3474 7.16779 24.9603 7.07901L23.8683 6.81268C22.9663 6.59251 22.2827 6.24094 21.8175 5.75799C21.3559 5.27504 21.1925 4.61985 21.3275 3.79244C21.4411 3.11417 21.7216 2.52113 22.1691 2.01332C22.6201 1.5055 23.19 1.11133 23.879 0.830788C24.5714 0.546697 25.3331 0.404652 26.1641 0.404652C27.0093 0.404652 27.7195 0.548473 28.2948 0.836114C28.8736 1.12021 29.2909 1.52148 29.5466 2.03995C29.8058 2.55486 29.8804 3.15678 29.7703 3.8457H27.2454ZM32.1668 11.4629H29.333L34.8249 0.553799H38.3352L40.2048 11.4629H37.371L36.1725 3.30238H36.0873L32.1668 11.4629ZM32.5077 7.16957H38.431L38.0901 9.17241H32.1668L32.5077 7.16957ZM52.6249 0.553799L50.8138 11.4629H48.5766L45.29 5.16673H45.2154L44.1661 11.4629H41.5294L43.3404 0.553799H45.6096L48.8696 6.83931H48.9601L49.9935 0.553799H52.6249ZM58.3541 11.4629H55.5203L61.0122 0.553799H64.5225L66.3921 11.4629H63.5583L62.3598 3.30238H62.2746L58.3541 11.4629ZM58.695 7.16957H64.6183L64.2774 9.17241H58.3541L58.695 7.16957ZM78.8122 0.553799L77.0011 11.4629H74.7639L71.4773 5.16673H71.4028L70.3534 11.4629H67.7167L69.5278 0.553799H71.7969L75.0569 6.83931H75.1474L76.1808 0.553799H78.8122ZM79.901 2.69513L80.2632 0.553799H89.4838L89.1216 2.69513H85.8137L84.3648 11.4629H81.7654L83.2142 2.69513H79.901ZM99.7878 6.1788C99.5889 7.35423 99.1983 8.34677 98.6159 9.15643C98.0371 9.96254 97.3322 10.5733 96.5012 10.9888C95.6738 11.4043 94.7842 11.612 93.8325 11.612C92.8276 11.612 91.9575 11.3883 91.2225 10.9409C90.4874 10.4934 89.9529 9.8418 89.6191 8.98597C89.2889 8.13015 89.2249 7.09144 89.4274 5.86985C89.6191 4.69442 90.0044 3.70011 90.5833 2.8869C91.1656 2.07369 91.8741 1.45756 92.7086 1.03853C93.5467 0.615944 94.4451 0.404652 95.4039 0.404652C96.4018 0.404652 97.2665 0.630149 97.998 1.08114C98.7331 1.53214 99.2658 2.18732 99.596 3.0467C99.9263 3.90607 99.9902 4.95011 99.7878 6.1788ZM97.1511 5.86985C97.2612 5.18448 97.2612 4.60742 97.1511 4.13867C97.0445 3.66992 96.835 3.31658 96.5225 3.07866C96.21 2.83718 95.8034 2.71644 95.3027 2.71644C94.7487 2.71644 94.248 2.85316 93.8006 3.1266C93.3567 3.39648 92.9856 3.79066 92.6873 4.30913C92.389 4.82404 92.1813 5.44727 92.0641 6.1788C91.9433 6.87127 91.9398 7.44833 92.0534 7.90998C92.1706 8.37163 92.389 8.71964 92.7086 8.95401C93.0282 9.18484 93.4348 9.30025 93.9284 9.30025C94.4789 9.30025 94.9742 9.16708 95.4146 8.90075C95.8549 8.63441 96.2225 8.24556 96.5172 7.7342C96.8155 7.22283 97.0268 6.60138 97.1511 5.86985ZM111.694 0.553799L109.883 11.4629H107.646L104.359 5.16673H104.284L103.235 11.4629H100.598L102.409 0.553799H104.679L107.939 6.83931H108.029L109.062 0.553799H111.694ZM116.138 0.553799L114.327 11.4629H111.691L113.502 0.553799H116.138ZM127.308 6.1788C127.109 7.35423 126.719 8.34677 126.136 9.15643C125.557 9.96254 124.853 10.5733 124.022 10.9888C123.194 11.4043 122.305 11.612 121.353 11.612C120.348 11.612 119.478 11.3883 118.743 10.9409C118.008 10.4934 117.473 9.8418 117.139 8.98597C116.809 8.13015 116.745 7.09144 116.948 5.86985C117.139 4.69442 117.525 3.70011 118.104 2.8869C118.686 2.07369 119.394 1.45756 120.229 1.03853C121.067 0.615944 121.965 0.404652 122.924 0.404652C123.922 0.404652 124.787 0.630149 125.518 1.08114C126.253 1.53214 126.786 2.18732 127.116 3.0467C127.447 3.90607 127.511 4.95011 127.308 6.1788ZM124.671 5.86985C124.781 5.18448 124.781 4.60742 124.671 4.13867C124.565 3.66992 124.355 3.31658 124.043 3.07866C123.73 2.83718 123.324 2.71644 122.823 2.71644C122.269 2.71644 121.768 2.85316 121.321 3.1266C120.877 3.39648 120.506 3.79066 120.208 4.30913C119.909 4.82404 119.702 5.44727 119.584 6.1788C119.464 6.87127 119.46 7.44833 119.574 7.90998C119.691 8.37163 119.909 8.71964 120.229 8.95401C120.549 9.18484 120.955 9.30025 121.449 9.30025C121.999 9.30025 122.495 9.16708 122.935 8.90075C123.375 8.63441 123.743 8.24556 124.038 7.7342C124.336 7.22283 124.547 6.60138 124.671 5.86985ZM9.9737 28.4629L11.7848 17.5538H16.2912C17.1079 17.5538 17.7898 17.7012 18.3366 17.9959C18.8835 18.2871 19.2724 18.7061 19.5032 19.253C19.734 19.7963 19.7873 20.4409 19.663 21.1866C19.5422 21.9395 19.2724 22.5804 18.8533 23.1096C18.4378 23.6351 17.9016 24.0364 17.2447 24.3134C16.5912 24.5904 15.8491 24.7289 15.0181 24.7289H12.1683L12.5199 22.6515H14.8796C15.2738 22.6515 15.6147 22.6 15.9023 22.497C16.19 22.3904 16.419 22.2306 16.5895 22.0176C16.7635 21.801 16.8789 21.524 16.9357 21.1866C16.989 20.8493 16.9641 20.5705 16.8611 20.3503C16.7617 20.1266 16.5859 19.9597 16.3338 19.8496C16.0852 19.736 15.7656 19.6792 15.375 19.6792H14.0753L12.6104 28.4629H9.9737ZM16.941 23.4771L18.832 28.4629H15.9556L14.1232 23.4771H16.941ZM22.5323 28.4629H19.6985L25.1903 17.5538H28.7006L30.5703 28.4629H27.7365L26.5379 20.3024H26.4527L22.5323 28.4629ZM22.8732 24.1696H28.7965L28.4556 26.1724H22.5323L22.8732 24.1696ZM42.4297 21.5062H39.7983C39.8125 21.2292 39.7859 20.9824 39.7184 20.7658C39.6509 20.5456 39.5444 20.3574 39.3988 20.2012C39.2532 20.0414 39.0721 19.9206 38.8555 19.839C38.6388 19.7573 38.3867 19.7164 38.0991 19.7164C37.5487 19.7164 37.0497 19.8532 36.6023 20.1266C36.1548 20.4 35.7802 20.7942 35.4783 21.3091C35.1765 21.824 34.9652 22.4419 34.8445 23.1628C34.7344 23.8588 34.7362 24.4395 34.8498 24.9047C34.967 25.3699 35.1836 25.7196 35.4996 25.954C35.8157 26.1848 36.217 26.3002 36.7035 26.3002C37.0195 26.3002 37.3125 26.263 37.5824 26.1884C37.8558 26.1103 38.1026 25.9984 38.3228 25.8528C38.543 25.7072 38.733 25.5314 38.8928 25.3255C39.0561 25.1159 39.1822 24.8833 39.271 24.6277H41.9237C41.7923 25.1071 41.5756 25.5847 41.2738 26.0605C40.9755 26.5328 40.5991 26.9608 40.1445 27.3443C39.69 27.7278 39.1626 28.035 38.5625 28.2658C37.9624 28.4966 37.2947 28.612 36.5597 28.612C35.5547 28.612 34.6882 28.3865 33.9602 27.9355C33.2358 27.4846 32.712 26.8311 32.3888 25.9753C32.0692 25.1159 32.0089 24.0755 32.2077 22.8539C32.4031 21.6713 32.7884 20.6752 33.3636 19.8656C33.9425 19.0559 34.6456 18.4434 35.473 18.0279C36.304 17.6124 37.19 17.4047 38.131 17.4047C38.8129 17.4047 39.4254 17.497 39.9688 17.6816C40.5156 17.8627 40.979 18.1291 41.359 18.4806C41.739 18.8287 42.0213 19.2566 42.206 19.7644C42.3942 20.2722 42.4688 20.8528 42.4297 21.5062ZM42.9432 28.4629L44.7543 17.5538H52.3609L51.9986 19.6951H47.0288L46.6666 21.9324H51.2476L50.8854 24.079H46.3044L45.9422 26.3216H50.912L50.5498 28.4629H42.9432ZM53.443 19.6951L53.8052 17.5538H63.0258L62.6635 19.6951H59.3557L57.9068 28.4629H55.3074L56.7562 19.6951H53.443ZM62.6524 28.4629L64.4635 17.5538H68.9699C69.7866 17.5538 70.4685 17.7012 71.0153 17.9959C71.5622 18.2871 71.9511 18.7061 72.1819 19.253C72.4127 19.7963 72.466 20.4409 72.3417 21.1866C72.221 21.9395 71.9511 22.5804 71.532 23.1096C71.1165 23.6351 70.5803 24.0364 69.9234 24.3134C69.27 24.5904 68.5278 24.7289 67.6968 24.7289H64.847L65.1986 22.6515H67.5583C67.9525 22.6515 68.2934 22.6 68.581 22.497C68.8687 22.3904 69.0977 22.2306 69.2682 22.0176C69.4422 21.801 69.5576 21.524 69.6144 21.1866C69.6677 20.8493 69.6428 20.5705 69.5398 20.3503C69.4404 20.1266 69.2646 19.9597 69.0125 19.8496C68.7639 19.736 68.4443 19.6792 68.0537 19.6792H66.754L65.2891 28.4629H62.6524ZM69.6197 23.4771L71.5107 28.4629H68.6343L66.8019 23.4771H69.6197ZM75.211 28.4629H72.3772L77.869 17.5538H81.3793L83.249 28.4629H80.4152L79.2167 20.3024H79.1314L75.211 28.4629ZM75.5519 24.1696H81.4752L81.1343 26.1724H75.211L75.5519 24.1696ZM95.1084 21.5062H92.477C92.4912 21.2292 92.4646 20.9824 92.3971 20.7658C92.3296 20.5456 92.2231 20.3574 92.0775 20.2012C91.9319 20.0414 91.7508 19.9206 91.5342 19.839C91.3176 19.7573 91.0654 19.7164 90.7778 19.7164C90.2274 19.7164 89.7284 19.8532 89.281 20.1266C88.8335 20.4 88.4589 20.7942 88.157 21.3091C87.8552 21.824 87.6439 22.4419 87.5232 23.1628C87.4131 23.8588 87.4149 24.4395 87.5285 24.9047C87.6457 25.3699 87.8623 25.7196 88.1784 25.954C88.4944 26.1848 88.8957 26.3002 89.3822 26.3002C89.6982 26.3002 89.9912 26.263 90.2611 26.1884C90.5345 26.1103 90.7813 25.9984 91.0015 25.8528C91.2217 25.7072 91.4117 25.5314 91.5715 25.3255C91.7348 25.1159 91.8609 24.8833 91.9497 24.6277H94.6024C94.471 25.1071 94.2544 25.5847 93.9525 26.0605C93.6542 26.5328 93.2778 26.9608 92.8232 27.3443C92.3687 27.7278 91.8414 28.035 91.2412 28.2658C90.6411 28.4966 89.9735 28.612 89.2384 28.612C88.2334 28.612 87.3669 28.3865 86.6389 27.9355C85.9145 27.4846 85.3907 26.8311 85.0676 25.9753C84.748 25.1159 84.6876 24.0755 84.8865 22.8539C85.0818 21.6713 85.4671 20.6752 86.0423 19.8656C86.6212 19.0559 87.3243 18.4434 88.1517 18.0279C88.9827 17.6124 89.8687 17.4047 90.8097 17.4047C91.4916 17.4047 92.1041 17.497 92.6475 17.6816C93.1943 17.8627 93.6578 18.1291 94.0377 18.4806C94.4177 18.8287 94.7 19.2566 94.8847 19.7644C95.0729 20.2722 95.1475 20.8528 95.1084 21.5062ZM95.6219 28.4629L97.433 17.5538H100.07L99.308 22.1667H99.4518L103.82 17.5538H106.925L102.264 22.4224L105.183 28.4629H102.03L100.048 24.1749L98.7487 25.5225L98.2587 28.4629H95.6219ZM10.9033 38.5062H8.27193C8.28613 38.2292 8.2595 37.9824 8.19203 37.7658C8.12456 37.5456 8.01802 37.3574 7.87243 37.2012C7.72683 37.0414 7.54572 36.9206 7.3291 36.839C7.11248 36.7573 6.86035 36.7164 6.57271 36.7164C6.02228 36.7164 5.52335 36.8532 5.07591 37.1266C4.62846 37.4 4.25382 37.7942 3.95197 38.3091C3.65012 38.824 3.43883 39.4419 3.31809 40.1628C3.20801 40.8588 3.20978 41.4395 3.32342 41.9047C3.44061 42.3699 3.65723 42.7196 3.97328 42.954C4.28933 43.1848 4.69061 43.3002 5.17711 43.3002C5.49316 43.3002 5.78613 43.263 6.05602 43.1884C6.32946 43.1103 6.57626 42.9984 6.79643 42.8528C7.0166 42.7072 7.20659 42.5314 7.36639 42.3255C7.52974 42.1159 7.65581 41.8833 7.74458 41.6277H10.3973C10.2659 42.1071 10.0493 42.5847 9.74743 43.0605C9.44913 43.5328 9.07271 43.9608 8.61816 44.3443C8.16362 44.7278 7.63628 45.035 7.03613 45.2658C6.43599 45.4966 5.76838 45.612 5.03329 45.612C4.02832 45.612 3.16184 45.3865 2.43386 44.9355C1.70943 44.4846 1.18564 43.8311 0.862482 42.9753C0.54288 42.1159 0.482511 41.0755 0.681374 39.8539C0.876687 38.6713 1.26199 37.6752 1.83727 36.8656C2.4161 36.0559 3.11923 35.4434 3.94664 35.0279C4.77761 34.6124 5.66362 34.4047 6.60467 34.4047C7.28649 34.4047 7.89906 34.497 8.44238 34.6816C8.98926 34.8627 9.45268 35.1291 9.83265 35.4806C10.2126 35.8287 10.4949 36.2566 10.6796 36.7644C10.8678 37.2722 10.9424 37.8528 10.9033 38.5062ZM11.4169 45.4629L13.2279 34.5538H15.8647L14.4158 43.3216H18.9542L18.5919 45.4629H11.4169ZM28.5178 34.5538H31.1492L29.9826 41.5904C29.8477 42.4036 29.5369 43.112 29.0504 43.7157C28.5675 44.3159 27.9514 44.7811 27.2021 45.1113C26.4528 45.438 25.6183 45.6014 24.6985 45.6014C23.7752 45.6014 22.9958 45.438 22.3601 45.1113C21.7244 44.7811 21.2646 44.3159 20.9805 43.7157C20.6964 43.112 20.62 42.4036 20.7514 41.5904L21.918 34.5538H24.5547L23.4201 41.3613C23.3597 41.7377 23.3882 42.0733 23.5053 42.3681C23.6261 42.6593 23.8214 42.8901 24.0913 43.0605C24.3612 43.2275 24.6914 43.3109 25.082 43.3109C25.4762 43.3109 25.8367 43.2275 26.1634 43.0605C26.4901 42.8901 26.76 42.6593 26.973 42.3681C27.1861 42.0733 27.3228 41.7377 27.3832 41.3613L28.5178 34.5538ZM31.1407 45.4629L32.9518 34.5538H37.5008C38.3175 34.5538 38.9834 34.6692 39.4983 34.9C40.0132 35.1309 40.3754 35.454 40.5849 35.8695C40.798 36.285 40.8584 36.7662 40.7661 37.313C40.6915 37.725 40.5388 38.0943 40.308 38.421C40.0807 38.7441 39.7966 39.014 39.4557 39.2306C39.1148 39.4437 38.7384 39.5929 38.3264 39.6781L38.3051 39.7846C38.7455 39.8024 39.1343 39.9196 39.4717 40.1362C39.8126 40.3528 40.0647 40.6564 40.2281 41.0471C40.3914 41.4341 40.4287 41.8887 40.3399 42.4107C40.244 42.9966 40.0079 43.5204 39.6315 43.9821C39.2586 44.4402 38.7668 44.8024 38.156 45.0687C37.5452 45.3315 36.8385 45.4629 36.0359 45.4629H31.1407ZM34.1396 43.3375H35.7696C36.3342 43.3375 36.771 43.2292 37.08 43.0126C37.3925 42.7924 37.5771 42.4906 37.6339 42.1071C37.6801 41.8265 37.6553 41.585 37.5594 41.3826C37.4635 41.1767 37.3037 41.0186 37.08 40.9086C36.8563 40.7949 36.5739 40.7381 36.233 40.7381H34.5551L34.1396 43.3375ZM34.8481 39.0389H36.3129C36.597 39.0389 36.858 38.9909 37.096 38.8951C37.3374 38.7992 37.5363 38.6607 37.6925 38.4796C37.8523 38.2985 37.9518 38.0801 37.9908 37.8244C38.0512 37.4586 37.9678 37.171 37.7405 36.9615C37.5132 36.752 37.1812 36.6472 36.7444 36.6472H35.2423L34.8481 39.0389Z" fill="#FF400D"/>
</svg>
