<svg width="53" height="51" viewBox="0 0 53 51" fill="none" xmlns="http://www.w3.org/2000/svg">
<path d="M27.1373 49.2683C24.8059 48.6502 5.64839 43.0597 1.9112 41.98C0.626457 41.6077 1.74373 39.8237 2.93035 38.9326C4.11697 38.0414 7.26583 34.4858 8.7411 34.3713C10.2164 34.2567 13.8941 37.5102 14.619 38.0247C15.344 38.5393 17.6918 37.9003 19.2277 37.096C20.7636 36.2917 20.8154 35.4885 20.6127 32.8784C20.4099 30.2683 16.1141 29.3461 15.6679 28.0108C15.2217 26.6754 15.9241 26.4635 16.8193 26.6655C17.5538 26.8312 20.2108 28.2969 20.9939 28.9671C21.3867 29.3033 23.3774 28.7868 23.2712 27.4203C23.1743 26.172 17.2486 23.892 18.126 22.9107C18.4414 22.558 27.6464 17.6046 30.7181 15.996C33.7899 14.3874 46.7398 4.65922 48.4478 3.20233C50.3564 1.57439 51.7608 0.961677 51.2597 2.98413C50.7218 5.15477 48.4731 13.8179 47.4 14.7004C46.3269 15.5829 43.5791 18.4221 42.095 18.4232C40.6109 18.4243 39.8154 17.0018 38.5065 17.7885C37.1976 18.5752 37.8289 22.2936 36.3536 22.4082C34.8784 22.5228 32.1107 22.1669 31.2469 22.8048C30.3832 23.4427 29.5017 23.8538 28.909 25.0415C28.3162 26.2292 29.9678 28.3841 29.2351 29.2402C28.5024 30.0963 27.2894 30.6472 27.3511 31.4416C27.4128 32.236 27.719 33.2397 27.5802 34.3921C27.4414 35.5446 26.1589 36.6717 24.8941 38.0258C23.6293 39.3798 22.8624 41.2661 23.3351 42.9418C23.8077 44.6176 29.4686 49.8863 27.1373 49.2683Z" stroke="#FF400D" stroke-width="1.5" stroke-linecap="square"/>
</svg>
